<svg xmlns="http://www.w3.org/2000/svg" xmlns:xlink="http://www.w3.org/1999/xlink" id="Layer_1" x="0" y="0" version="1.1" viewBox="0 0 597.3 300.5" xml:space="preserve" style="enable-background:new 0 0 597.3 300.5"><style type="text/css">.st0{fill-rule:evenodd;clip-rule:evenodd}.st0,.st1{fill:#000}</style><g id="Layer_x0020_1"><g id="_2413673844288"><path d="M289.7,189.2c-0.6,11.9-0.8,22.9-1.7,34.9c4.7,0.4,10,0.9,15.1,0.1l-1.5-33.3l-0.3-1.6 C297.5,189.5,293.9,189.7,289.7,189.2L289.7,189.2z M260.3,155.8c-5.8,2.9-14.3,7.3-13.4,15.2c1.3,4.3,5.9,7.2,9.7,8.9 c20.5,9.1,47.9,9.4,69.6,2.7c5.3-2.1,12.5-5,13.5-11.7c-0.1-5.4-5.8-8.9-10-11v-0.3c1.4-0.6,3.1-1.1,4.5-1.2v-0.1 c-7.3-1.3-14.3-3.3-21.3-5c1.4,3.1,2.4,6.3,3.5,9.6c2.2-0.7,4.2-1.2,6.6-1.5c3.8,1.5,9.1,3.6,9.6,8.2c0.4,4.3-4.3,6.4-7.4,8.2 c-15.9,5.8-33.9,6.3-50.5,2c-4.5-1.4-11.3-3.3-11.8-9.1c3.3-7.7,11.7-9.3,18.7-11.2c-3.7-2.4-7.3-4.4-10.8-7 C267.2,152.6,263.8,154.3,260.3,155.8L260.3,155.8z M295.6,109.4l-2.1,6.6l-10.4,29.6c2.6,0.3,5.8,0,8.3,0.3v0.2l-1.5,33.6 l0.3,0.3c3.3,0.3,7.4,0.5,10.8-0.1v-0.5l-1.4-32.5l0.2-1.1l9.1-0.2C304.4,133.7,300,121.5,295.6,109.4L295.6,109.4L295.6,109.4z" class="st0"/><circle cx="225.3" cy="56.4" r="17.3" class="st0"/><circle cx="190" cy="56.5" r="11" class="st0"/><circle cx="92.9" cy="158.3" r="13.4" class="st0"/><circle cx="159.4" cy="222" r="17.3" class="st0"/><circle cx="124.1" cy="222" r="11" class="st0"/><path d="M379.6,81.6h18.2c15.4-0.2,15.4-6,9.5,38.6l17.8,0.1c0.9-14.3,2.5-27,2.7-41.6c0.2-20.3,3.3-12.1-30.6-14.3 l-17.5-0.1l-33.8,0.4c-6.2,5-10.6,14.7-16.9,20.4H143.3c-3.2-6.6-10-11.3-17.9-11.3c-10.9,0-19.8,8.8-19.8,19.8 s8.8,19.8,19.8,19.8c7.4,0,13.7-4,17.2-10c2.5-2.1,3.9-1.2,11.8-1.2h184.1c2.4-3.5,12.3-17.5,16.1-20.1L379.6,81.6z" class="st0"/><path d="M379.6,64.2l17.5,0.1l-4.4-30c-8.1-1.4-100-0.1-110.7-0.3c-8.4-0.2-12.2-6.6-16.1-10.9 c-6.8-7.6-6.3-9.5-19-9.4c-18.3,0.2-38.2,0.6-56.5-0.5C187,6.6,180.2,2.2,172.3,2.2c-11.2,0-20.2,9.1-20.2,20.2 s9.1,20.2,20.2,20.2c8,0,15-4.6,18.3-11.5c15.8-1.2,35.1-0.3,51.2-0.3c18.6,0,17.5,19.8,32.4,20.4c29.1,1.3,68.9-1.2,97.9-0.2 c1.3,0.1,2.4,0.1,3.7,0.3l3.1,1L379.6,64.2z" class="st0"/><path d="M188.1,179.9c-4.8-1.4-14.8-1.6-19.6,0.2c2.4,14.1,32.6,53.9,39.8,60.8c17.1,16.5,31.7,31.7,55.4,44.9 c7.9,4.4,24.7,15.6,34.6,11.1c12.1-5.5,22.5-11.5,32.8-18.2c11.2-7.2,18.8-14,27.8-21.7c5.1-4.4,19.3-19.6,23.4-26.9l-22.3-0.3 c-9.7,15.9-58.2,51.5-69.7,49.7c-4.6-0.7-22.1-11.4-26.6-14.3C237.5,247.8,196.6,207.1,188.1,179.9z" class="st0"/><path d="M162.7,162.1l19.1-0.1c0.1-0.4-0.5-1.5-0.5-1.7l-6.7-18.2c-2.6-7.8-3.1-17.1-6.9-23.3 c-26.8-1.3-57.4,0.9-82.2-0.1c-1.5-0.1-2.7-0.2-3.7-0.5c-3.3-6.9-10.3-11.7-18.5-11.7c-11.3,0-20.4,9.2-20.4,20.4 c0,11.3,9.2,20.4,20.4,20.4c8.1,0,15.1-4.7,18.5-11.7H155C157.1,144,161.4,154.7,162.7,162.1z" class="st0"/><polygon points="397.8 81.5 379.6 81.6 376.7 119.9 394.1 120.3" class="st0"/><path id="ieee-1.svg" d="M359.2,135.1h21.4v77.5h-21.4V135.1z M391.9,212.6V135h59.1v15.1h-37.5v16H448v15h-34.6v16.4 h37.5v15H391.9z M463,212.6V135H522v15.1h-37.5v16h34.6v15h-34.6v16.4H522v15H463z M534,212.6V135h59.1v15.1h-37.5v16h34.6v15 h-34.6v16.4h37.5v15H534z" class="st0"/><path d="M429,245.9l5.9-0.6c0.4,2,1.1,3.5,2.2,4.3s2.6,1.4,4.3,1.4c2,0,3.5-0.4,4.4-1.2c1-0.9,1.5-1.8,1.5-2.9 c0-0.7-0.2-1.3-0.6-1.8c-0.4-0.5-1.2-1-2.2-1.3c-0.7-0.3-2.3-0.7-4.8-1.3c-3.3-0.8-5.5-1.8-6.8-3c-1.9-1.7-2.8-3.7-2.8-6 c0-1.6,0.4-3,1.3-4.3c0.9-1.3,2.1-2.4,3.8-3.1c1.6-0.7,3.6-1,5.9-1c3.8,0,6.6,0.9,8.5,2.5c1.9,1.7,2.9,3.9,3,6.7l-6.1,0.2 c-0.3-1.6-0.8-2.7-1.7-3.4c-0.9-0.7-2.2-1-3.9-1c-1.8,0-3.1,0.4-4.1,1.1c-0.6,0.5-1,1.1-1,1.9c0,0.7,0.3,1.3,0.9,1.8 c0.8,0.7,2.7,1.4,5.5,2.1c3,0.7,5.1,1.4,6.5,2.2c1.4,0.7,2.6,1.8,3.4,3.1c0.8,1.3,1.2,2.9,1.2,4.7c0,1.8-0.5,3.4-1.4,4.8 c-1,1.5-2.3,2.6-4,3.4c-1.8,0.7-4,1.1-6.5,1.1c-3.8,0-6.7-0.9-8.7-2.6C430.6,251.7,429.4,249.2,429,245.9z" class="st1"/><path d="M458.5,225.5h12.1c2.4,0,4.1,0.1,5.3,0.3c1.2,0.2,2.2,0.6,3.2,1.2c0.9,0.7,1.7,1.5,2.3,2.5 c0.6,1.1,0.9,2.2,0.9,3.6c0,1.4-0.4,2.7-1.2,3.9c-0.8,1.2-1.8,2.1-3.1,2.7c1.8,0.5,3.3,1.5,4.2,2.8c1,1.3,1.5,2.8,1.5,4.5 c0,1.4-0.3,2.7-1,4c-0.6,1.3-1.5,2.4-2.6,3.1c-1.1,0.8-2.5,1.2-4,1.4c-1,0.1-3.5,0.2-7.3,0.2h-10.2L458.5,225.5L458.5,225.5z M464.6,230.6v6.9h4c2.4,0,3.9,0,4.4-0.1c1-0.1,1.9-0.5,2.5-1.1c0.6-0.6,0.9-1.4,0.9-2.4c0-0.9-0.3-1.7-0.8-2.3 c-0.5-0.6-1.3-0.9-2.3-1.1c-0.6-0.1-2.4-0.1-5.1-0.1L464.6,230.6L464.6,230.6z M464.6,242.5v8h5.6c2.2,0,3.6-0.1,4.1-0.2 c0.9-0.2,1.7-0.6,2.2-1.2c0.6-0.6,0.9-1.5,0.9-2.6c0-0.9-0.2-1.7-0.7-2.3c-0.5-0.6-1.1-1.1-1.9-1.4c-0.8-0.3-2.6-0.4-5.3-0.4 H464.6z" class="st1"/><polygon points="500.4 255.5 500.4 225.5 506.3 225.5 518.7 245.7 518.7 225.5 524.3 225.5 524.3 255.5 518.2 255.5 506 235.9 506 255.5" class="st1"/><polygon points="530.4 255.5 530.4 225.5 536.6 225.5 536.6 255.5" class="st1"/><polygon points="549.1 255.5 549.1 230.7 540.2 230.7 540.2 225.5 564 225.5 564 230.7 555.1 230.7 555.1 255.5" class="st1"/><path d="M567.9,225.5h11.1c2.5,0,4.4,0.2,5.7,0.6c1.8,0.5,3.3,1.4,4.5,2.8c1.2,1.3,2.2,3,2.9,4.8c0.7,2,1,4.2,1,7.1 c0,2.5-0.3,4.6-0.9,6.4c-0.8,2.2-1.8,4-3.3,5.3c-1,1-2.5,1.8-4.2,2.4c-1.4,0.4-3.2,0.7-5.3,0.7H568L567.9,225.5L567.9,225.5z M574,230.7v19.9h4.5c1.7,0,2.9-0.1,3.7-0.3c1-0.3,1.8-0.7,2.5-1.3c0.7-0.6,1.2-1.6,1.6-2.9c0.4-1.4,0.6-3.2,0.6-5.5 c0-2.3-0.2-4-0.6-5.3c-0.4-1.2-1-2.2-1.7-2.9c-0.8-0.7-1.7-1.2-2.8-1.4c-0.9-0.2-2.5-0.3-4.9-0.3L574,230.7L574,230.7z" class="st1"/><path d="M168.5,180.1l19.6-0.2c19.4,0.2,12.3-1.1,21.5,12.8c18.5,28.1,40.4,50.3,70.3,67.7c11.2,6.4,11,7.1,23.6,0 c12.2-6.9,34.9-23,38.6-30.5c-30.9-1.5-24,0.6-43.5,12.6c-11.2,6.8-20.8-4-35.9-15.8c-21.4-16.8-36.7-40-50.3-64.3l-34.4-0.5 l-18.5,0.1c-32.5-0.2-30.1-7.3-52.4,25.6c-9.6,0-54.2,1.6-64.7-0.5C39.5,180,32.2,175,23.9,175c-11.3,0-20.4,9.1-20.4,20.4 c0,11.3,9.2,20.4,20.4,20.4c7.3,0,13.7-3.9,17.3-9.7c1.5-0.7,3.5-1.2,6-1.2c14.6-0.4,58.6,2.2,68.5-0.5 c4.7-2.5,15.9-23.6,21.5-24.7L168.5,180.1z" class="st0"/></g></g></svg>